<svg xmlns="http://www.w3.org/2000/svg" width="163.402" height="59.998" viewBox="0 0 163.402 59.998">
  <g id="Group_503" data-name="Group 503" transform="translate(-210.438 -221.65)">
    <path id="Path_364" data-name="Path 364" d="M500.6,242.008c1.809,0,3.668.165,6.5.165,3.661,0,5.188-.11,6.77-.165a1.623,1.623,0,0,1-.056,1.528c-3.165.491-4.516.875-6.889,3.437-3.443,3.712-7.623,7.862-10.163,10.429a.242.242,0,0,0,0,.269c2.147,3.114,10.444,12.006,14.227,14.9a6.692,6.692,0,0,0,2.259,1.2,13.974,13.974,0,0,0,3.895.543c.173.22.115,1.425-.223,1.585-1.979.22-7.846.107-9.316-.381a8.458,8.458,0,0,1-2.313-1.418,173.553,173.553,0,0,1-12.562-13.709,5.658,5.658,0,0,0-1.158-.976,1.42,1.42,0,0,1,.116-.871c2.653-.984,8.522-7.2,11.74-11.132a4.141,4.141,0,0,0,1.129-2.293c0-.435-.34-.766-1.073-.984a17.707,17.707,0,0,0-2.937-.6,1.805,1.805,0,0,1,.059-1.528" transform="translate(-171.87 -12.447)" fill="#fff"/>
    <path id="Path_365" data-name="Path 365" d="M363.349,241.866c-1.182.165-4.118.219-6.261.219h-4.951c-1.707-.065-3.161-.144-4.021-.144-.23.272-.343,1.312-.056,1.526a.222.222,0,0,0,.038.009c1.273.162,2.31.262,3.068.307,2.955.181,5.647.51,6.2.54,1.866.164,2.376.763,2.824,2.074a19.608,19.608,0,0,1,.624,3.33,2.445,2.445,0,0,0,1.748-.11,53.141,53.141,0,0,1,1.017-7.478c0-.053-.169-.216-.231-.272" transform="translate(-84.038 -12.36)" fill="#fff"/>
    <path id="Path_366" data-name="Path 366" d="M361.68,271.52a2.689,2.689,0,0,0-1.863-.164,15,15,0,0,1-.622,2.182,1.973,1.973,0,0,1-1.92,1.636c-1.824.152-8.446.206-8.618.33-.222.166-.3,1.715.109,2,.141.1,6.808.194,8.338.344a1.938,1.938,0,0,1,1.922,1.579,10.872,10.872,0,0,1,.45,2.239,2.345,2.345,0,0,0,1.917-.053c-.051-1.362-.106-2.945-.106-4.963a37.66,37.66,0,0,1,.392-5.132" transform="translate(-84.397 -30.333)" fill="#fff"/>
    <path id="Path_367" data-name="Path 367" d="M365.165,306.316c-.736,1.639-1.635,3.918-2.54,4.9-1.014,1.257-2.268,1.821-4.694,1.967-1.181.069-7.48.187-9.237.326a1.958,1.958,0,0,0,.025,1.554.111.111,0,0,0,.012.037c.564,0,1.173,0,1.8-.01,3.744.064,6.915.178,10.4.178,2.821,0,3.165-.275,3.5-.876a37.075,37.075,0,0,0,2.373-7.476,3.207,3.207,0,0,0-1.636-.6" transform="translate(-84.438 -51.762)" fill="#fff"/>
    <path id="Path_368" data-name="Path 368" d="M579.923,241.866c-1.177.165-4.118.219-6.264.219h-4.951c-1.7-.065-3.158-.144-4.019-.144-.223.272-.344,1.312-.054,1.526a.162.162,0,0,0,.041.009c1.275.162,2.31.262,3.062.307,2.957.181,5.646.51,6.2.54,1.865.164,2.372.763,2.83,2.074a20.448,20.448,0,0,1,.616,3.33,2.451,2.451,0,0,0,1.751-.11,52.735,52.735,0,0,1,1.017-7.478c0-.053-.166-.216-.231-.272" transform="translate(-216.449 -12.36)" fill="#fff"/>
    <path id="Path_369" data-name="Path 369" d="M578.255,271.52a2.692,2.692,0,0,0-1.864-.164,15.571,15.571,0,0,1-.62,2.182,1.978,1.978,0,0,1-1.923,1.636c-1.823.152-8.443.206-8.615.33-.219.166-.294,1.715.109,2,.141.1,6.808.194,8.341.344a1.931,1.931,0,0,1,1.915,1.579,10.861,10.861,0,0,1,.45,2.239,2.359,2.359,0,0,0,1.923-.053c-.053-1.362-.109-2.945-.109-4.963a36.726,36.726,0,0,1,.393-5.132" transform="translate(-216.81 -30.333)" fill="#fff"/>
    <path id="Path_370" data-name="Path 370" d="M581.735,306.316c-.734,1.639-1.633,3.918-2.54,4.9-1.014,1.257-2.267,1.821-4.69,1.967-1.183.069-7.486.187-9.241.326a1.957,1.957,0,0,0,.024,1.554c.006.01.006.026.016.037.559,0,1.167,0,1.795-.01,3.743.064,6.911.178,10.4.178,2.818,0,3.162-.275,3.5-.876a37.118,37.118,0,0,0,2.371-7.476,3.224,3.224,0,0,0-1.638-.6" transform="translate(-216.847 -51.762)" fill="#fff"/>
    <path id="Path_371" data-name="Path 371" d="M401.893,241.711c1.638,0,3.5.166,7.228.166,3.783,0,5.869-.166,7-.166a1.514,1.514,0,0,1,0,1.529,24.165,24.165,0,0,0-2.88.49c-1.358.328-1.47,1.039-1.526,2.184-.11,1.964-.11,6.658-.172,11.789,0,6.768,0,11.3.172,13.641a1.8,1.8,0,0,0,1.07,1.526c1.47.5,9.554.431,12.042.441,4.074.016,5.447-3.637,6.405-5.933a1.076,1.076,0,0,1,1.144.356c-.4,2.127-1.175,5.632-2.127,7.27-.231.437-.8.71-2.318.71-3.612,0-15.932-.273-18.81-.273-2.653,0-6.942.166-8.075.166-.225-.166-.281-1.418,0-1.585a34.2,34.2,0,0,0,3.728-.5c1.239-.328,1.635-.923,1.745-2.234.118-1.473.225-6.82.225-13.914,0-5.786,0-9.06-.107-10.479-.056-2.239-.284-2.84-1.807-3.168-.734-.163-2.086-.381-3.1-.49a1.632,1.632,0,0,1,.166-1.529" transform="translate(-116.421 -12.265)" fill="#fff"/>
    <path id="Path_372" data-name="Path 372" d="M449.837,240.08c-5.716.157-10.244,3.422-10.085,8.83.106,3.351,1.891,5.526,4.713,7.421,1.012.678,2.712,1.241,3.965,1.889,4.26,2.254,6.476,3.306,6.729,6.405a1.381,1.381,0,0,0,1.148.215c1.855-5.322-2.349-8.79-4.819-10.108-1.253-.676-3.921-2.026-3.949-2.042-2.251-1.4-3.661-2.83-3.743-5.663a5.235,5.235,0,0,1,5.36-5.311,7.408,7.408,0,0,1,4.282.947c1.284.769,1.8,2.174,2.2,5.147.166.247,1.379.213,1.523-.1.133-2.479-.293-4.372.169-6.864-3.513-.481-3.868-.872-7.5-.769" transform="translate(-140.199 -11.258)" fill="#fff"/>
    <path id="Path_373" data-name="Path 373" d="M264.689,226.365v-.745h-3.737v-3.97h-.77v3.97H214.715v-3.9h-.772v3.9h-3.506v.745h3.506v40.819h-3.48v.745h3.48v3.477h.772v-3.477h45.466v3.477h.77v-3.477h3.737v-.745h-3.734V226.365Zm-7.916,37.142c-1.7,0-4.685-.162-7.567-.162s-5.709.107-7.176.162a1.944,1.944,0,0,1,0-1.585,16.761,16.761,0,0,0,3.221-.548c1.015-.269,1.355-.818,1.467-2.51.056-1.58.056-7.534.056-10.974a.414.414,0,0,0-.339-.384c-1.073-.054-5.875-.054-8.981-.054-1.01,0-2.026,0-3.008,0v3.871h-2.427v-3.867c-2.176,0-3.846.018-4.169.049-.112,0-.169.275-.169.328,0,3,0,9.284.057,10.433.112,1.854.34,2.617,1.751,3a24.722,24.722,0,0,0,3.391.651,1.907,1.907,0,0,1-.228,1.585c-1.073,0-3.727-.162-7.34-.162-3.337,0-6.386.162-7.514.162a2.18,2.18,0,0,1-.057-1.585c1.358-.162,2.258-.328,3.05-.49,1.639-.49,1.805-1.477,1.976-3.987,0-1.86.059-6.5.059-11.251,0-5.3-.059-11.086-.115-12.068-.115-1.529-.453-2.129-1.582-2.405a22.618,22.618,0,0,0-3.388-.6,1.8,1.8,0,0,1,.057-1.529c1.351,0,4.177.165,7.228.165,3.784,0,5.482-.165,7.061-.165.169.274.169,1.364-.056,1.529-1.017.165-2.089.328-2.712.49-1.128.331-1.523.766-1.582,2.515-.11,2.018-.057,4.8-.057,10.155,0,.221.116.494.286.548.275.037.914.075,4.052.094v-3.966h2.427v3.975c.914,0,1.92,0,3.122,0,6.213-.054,8.356-.054,8.866-.107a.412.412,0,0,0,.339-.328c0-2.84,0-9.012-.113-10.977a1.779,1.779,0,0,0-1.129-1.8,17.494,17.494,0,0,0-3.336-.6,1.6,1.6,0,0,1,.059-1.582c1.3,0,4.066.218,7.059.218,2.826,0,6.1-.165,7.008-.165a2.066,2.066,0,0,1,0,1.529,20.177,20.177,0,0,0-2.937.546c-1.245.385-1.47.984-1.586,2.951-.112,1.914-.112,5.132-.112,11.631,0,4.747,0,10.761.112,12.615.171,1.526.51,2.127,1.586,2.455a16.01,16.01,0,0,0,3.615.6c.171.219.11,1.423-.228,1.585" fill="#fff"/>
    <path id="Path_374" data-name="Path 374" d="M219.666,360.091v6.042h4.678v-1.122h-3.508v-1.364h3.383v-1.061h-3.383V361.2h3.508v-1.1Z" transform="translate(-5.642 -84.642)" fill="#fff"/>
    <path id="Path_375" data-name="Path 375" d="M262.452,360.068v3.756l-3.062-3.747h-.956v6.044h1.178v-4.075l3.287,4.082v-.007h.731v-6.052Z" transform="translate(-29.345 -84.628)" fill="#fff"/>
    <path id="Path_376" data-name="Path 376" d="M298.216,360.091v6.042h4.678v-1.122h-3.509v-1.364h3.384v-1.061h-3.384V361.2h3.509v-1.1Z" transform="translate(-53.667 -84.642)" fill="#fff"/>
    <path id="Path_377" data-name="Path 377" d="M341.831,366.119h-1.4l-1.823-2.02h-1.134v2.02H336.3v-6.051c.991,0,1.981.009,2.972.009a2.04,2.04,0,0,1,2.249,2,1.8,1.8,0,0,1-1.581,1.9l1.894,2.063Zm-4.357-4.981v1.933h1.795a.972.972,0,1,0,0-1.933Z" transform="translate(-76.949 -84.628)" fill="#fff"/>
    <path id="Path_378" data-name="Path 378" d="M379.7,361.294a2.443,2.443,0,0,0-1.591-.6,2.091,2.091,0,0,0-2.149,2.227,1.943,1.943,0,0,0,2.149,2.02,2.118,2.118,0,0,0,1.411-.483v-1.069h-1.6v-1.02H380.6v2.548A3.159,3.159,0,0,1,378.11,366a2.964,2.964,0,0,1-3.3-3.083,3.122,3.122,0,0,1,3.3-3.272,3.361,3.361,0,0,1,2.323.925Z" transform="translate(-100.495 -84.369)" fill="#fff"/>
    <path id="Path_379" data-name="Path 379" d="M418.643,360.091l-1.66,2.495-1.589-2.495h-1.4v.051l2.4,3.5v2.495h1.178v-2.495l2.492-3.5v-.051Z" transform="translate(-124.452 -84.642)" fill="#fff"/>
    <path id="Path_380" data-name="Path 380" d="M484.527,361.225a1.814,1.814,0,0,0-1.482-.673c-.875,0-1.3.354-1.3.8,0,.526.642.675,1.394.76,1.3.156,2.517.483,2.517,1.924,0,1.347-1.232,1.926-2.625,1.926a2.607,2.607,0,0,1-2.721-1.484l.98-.493a1.793,1.793,0,0,0,1.76.959c.741,0,1.437-.25,1.437-.907,0-.569-.616-.8-1.446-.89-1.277-.146-2.455-.473-2.455-1.829,0-1.244,1.267-1.752,2.418-1.761a2.549,2.549,0,0,1,2.455,1.2Z" transform="translate(-165.001 -84.317)" fill="#fff"/>
    <path id="Path_381" data-name="Path 381" d="M521.239,360.091l-2.8,6.042h1.277l.535-1.139h3.268l.526,1.139h1.287l-2.805-6.042Zm.642,1.269,1.162,2.573h-2.321Z" transform="translate(-188.308 -84.642)" fill="#fff"/>
    <path id="Path_382" data-name="Path 382" d="M562.58,360.091l-1.892,4.7-1.885-4.7h-1.322l2.6,6.069H561.3l2.6-6.069Z" transform="translate(-212.181 -84.642)" fill="#fff"/>
    <path id="Path_383" data-name="Path 383" d="M599.489,360.091v6.042h4.678v-1.122h-3.508v-1.364h3.384v-1.061h-3.384V361.2h3.508v-1.1Z" transform="translate(-237.863 -84.642)" fill="#fff"/>
    <path id="Path_384" data-name="Path 384" d="M618.567,236.933h-.888v1.2h.888a.6.6,0,1,0,0-1.2m.573,3.037-.9-1.375h-.559v1.375h-.53v-3.481h1.418a1.122,1.122,0,0,1,1.175,1.06,1.02,1.02,0,0,1-.888,1.032l.93,1.389Zm-.817-4.284a2.536,2.536,0,1,0,2.536,2.536,2.523,2.523,0,0,0-2.536-2.536m0,5.573a3.037,3.037,0,1,1,3.037-3.037,3.039,3.039,0,0,1-3.037,3.037" transform="translate(-247.522 -8.275)" fill="#fff"/>
  </g>
</svg>
