<svg xmlns="http://www.w3.org/2000/svg" width="163.408" height="59.999" viewBox="0 0 163.408 59.999">
  <g id="Group_461" data-name="Group 461" transform="translate(-210.438 -221.65)">
    <path id="Path_339" data-name="Path 339" d="M500.6,242.008c1.809,0,3.668.165,6.5.165,3.661,0,5.188-.11,6.77-.165a1.624,1.624,0,0,1-.056,1.528c-3.165.491-4.517.875-6.889,3.437-3.443,3.712-7.623,7.863-10.164,10.429a.242.242,0,0,0,0,.269c2.147,3.114,10.444,12.007,14.227,14.9a6.693,6.693,0,0,0,2.259,1.2,13.976,13.976,0,0,0,3.895.543c.173.22.115,1.425-.223,1.585-1.979.22-7.846.107-9.316-.381a8.458,8.458,0,0,1-2.313-1.418,173.582,173.582,0,0,1-12.563-13.71,5.659,5.659,0,0,0-1.158-.976,1.419,1.419,0,0,1,.116-.87c2.654-.984,8.523-7.205,11.741-11.132a4.141,4.141,0,0,0,1.129-2.293c0-.435-.34-.766-1.073-.984a17.711,17.711,0,0,0-2.938-.6,1.805,1.805,0,0,1,.059-1.528" transform="translate(-171.865 -12.446)" fill="#5f6164"/>
    <path id="Path_340" data-name="Path 340" d="M363.35,241.866c-1.182.165-4.118.219-6.262.219h-4.951c-1.707-.065-3.161-.144-4.021-.144-.23.272-.343,1.312-.056,1.526a.22.22,0,0,0,.038.009c1.273.162,2.31.262,3.068.307,2.955.181,5.647.51,6.2.54,1.866.164,2.376.763,2.825,2.074a19.613,19.613,0,0,1,.624,3.33,2.444,2.444,0,0,0,1.748-.11,53.149,53.149,0,0,1,1.017-7.479c0-.053-.169-.216-.231-.272" transform="translate(-84.035 -12.36)" fill="#5f6164"/>
    <path id="Path_341" data-name="Path 341" d="M361.681,271.52a2.689,2.689,0,0,0-1.863-.164,15.006,15.006,0,0,1-.622,2.182,1.973,1.973,0,0,1-1.92,1.636c-1.825.152-8.446.206-8.618.33-.222.166-.3,1.715.109,2,.141.1,6.808.194,8.339.344a1.938,1.938,0,0,1,1.922,1.579,10.868,10.868,0,0,1,.45,2.239,2.345,2.345,0,0,0,1.917-.053c-.051-1.362-.106-2.945-.106-4.963a37.657,37.657,0,0,1,.393-5.133" transform="translate(-84.395 -30.332)" fill="#5f6164"/>
    <path id="Path_342" data-name="Path 342" d="M365.166,306.316c-.736,1.639-1.635,3.918-2.54,4.9-1.014,1.257-2.268,1.821-4.694,1.967-1.181.069-7.48.187-9.237.326a1.959,1.959,0,0,0,.025,1.554.112.112,0,0,0,.012.037c.564,0,1.173,0,1.8-.01,3.744.065,6.916.178,10.4.178,2.821,0,3.165-.275,3.5-.876a37.078,37.078,0,0,0,2.373-7.476,3.208,3.208,0,0,0-1.636-.6" transform="translate(-84.436 -51.76)" fill="#5f6164"/>
    <path id="Path_343" data-name="Path 343" d="M579.923,241.866c-1.178.165-4.118.219-6.264.219h-4.951c-1.7-.065-3.158-.144-4.02-.144-.223.272-.344,1.312-.054,1.526a.162.162,0,0,0,.041.009c1.275.162,2.31.262,3.062.307,2.957.181,5.647.51,6.2.54,1.865.164,2.372.763,2.83,2.074a20.45,20.45,0,0,1,.616,3.33,2.451,2.451,0,0,0,1.751-.11,52.739,52.739,0,0,1,1.017-7.479c0-.053-.166-.216-.231-.272" transform="translate(-216.443 -12.36)" fill="#5f6164"/>
    <path id="Path_344" data-name="Path 344" d="M578.256,271.52a2.692,2.692,0,0,0-1.864-.164,15.564,15.564,0,0,1-.62,2.182,1.979,1.979,0,0,1-1.923,1.636c-1.823.152-8.443.206-8.615.33-.219.166-.294,1.715.109,2,.141.1,6.808.194,8.342.344a1.931,1.931,0,0,1,1.916,1.579,10.87,10.87,0,0,1,.45,2.239,2.359,2.359,0,0,0,1.923-.053c-.053-1.362-.109-2.945-.109-4.963a36.738,36.738,0,0,1,.393-5.133" transform="translate(-216.805 -30.332)" fill="#5f6164"/>
    <path id="Path_345" data-name="Path 345" d="M581.736,306.316c-.734,1.639-1.633,3.918-2.54,4.9-1.014,1.257-2.267,1.821-4.69,1.967-1.183.069-7.486.187-9.241.326a1.956,1.956,0,0,0,.024,1.554c.006.01.006.026.016.037.559,0,1.167,0,1.8-.01,3.743.065,6.911.178,10.4.178,2.818,0,3.162-.275,3.5-.876a37.121,37.121,0,0,0,2.371-7.476,3.224,3.224,0,0,0-1.638-.6" transform="translate(-216.841 -51.76)" fill="#5f6164"/>
    <path id="Path_346" data-name="Path 346" d="M401.893,241.711c1.638,0,3.5.166,7.229.166,3.783,0,5.869-.166,7-.166a1.514,1.514,0,0,1,0,1.529,24.161,24.161,0,0,0-2.88.49c-1.358.328-1.47,1.039-1.526,2.184-.11,1.964-.11,6.659-.172,11.79,0,6.769,0,11.3.172,13.641a1.8,1.8,0,0,0,1.07,1.526c1.47.5,9.555.431,12.042.441,4.074.016,5.447-3.637,6.406-5.934a1.076,1.076,0,0,1,1.144.356c-.4,2.127-1.175,5.632-2.127,7.27-.231.437-.8.71-2.319.71-3.612,0-15.932-.273-18.811-.273-2.654,0-6.942.166-8.076.166-.225-.166-.281-1.418,0-1.585a34.193,34.193,0,0,0,3.728-.5c1.239-.328,1.635-.923,1.745-2.235.118-1.473.225-6.82.225-13.915,0-5.787,0-9.061-.107-10.48-.056-2.239-.284-2.84-1.807-3.168-.734-.163-2.087-.381-3.1-.49a1.632,1.632,0,0,1,.166-1.529" transform="translate(-116.418 -12.265)" fill="#5f6164"/>
    <path id="Path_347" data-name="Path 347" d="M449.837,240.08c-5.716.157-10.244,3.423-10.086,8.83.106,3.351,1.891,5.527,4.714,7.422,1.012.678,2.713,1.241,3.965,1.889,4.26,2.254,6.476,3.306,6.729,6.406a1.381,1.381,0,0,0,1.148.215c1.855-5.322-2.349-8.79-4.819-10.109-1.253-.676-3.921-2.026-3.949-2.042-2.251-1.4-3.661-2.83-3.743-5.663a5.236,5.236,0,0,1,5.36-5.312,7.408,7.408,0,0,1,4.282.947c1.284.769,1.8,2.174,2.2,5.147.166.247,1.379.213,1.523-.1.133-2.479-.293-4.372.169-6.864-3.514-.481-3.868-.872-7.5-.769" transform="translate(-140.195 -11.258)" fill="#5f6164"/>
    <path id="Path_348" data-name="Path 348" d="M264.691,226.365v-.745h-3.737v-3.97h-.77v3.97H214.715v-3.9h-.772v3.9h-3.507v.745h3.507v40.821h-3.48v.745h3.48v3.477h.772v-3.477h45.468v3.477h.77v-3.477h3.737v-.745h-3.734V226.365Zm-7.917,37.144c-1.7,0-4.686-.162-7.567-.162s-5.709.107-7.176.162a1.943,1.943,0,0,1,0-1.585,16.761,16.761,0,0,0,3.221-.548c1.015-.269,1.355-.818,1.467-2.51.056-1.581.056-7.535.056-10.975a.414.414,0,0,0-.339-.384c-1.073-.054-5.875-.054-8.982-.054-1.01,0-2.026,0-3.008,0v3.871h-2.427v-3.867c-2.176,0-3.846.018-4.169.049-.112,0-.169.275-.169.328,0,3,0,9.284.057,10.434.112,1.854.34,2.617,1.751,3a24.725,24.725,0,0,0,3.392.651,1.907,1.907,0,0,1-.228,1.585c-1.073,0-3.727-.162-7.341-.162-3.337,0-6.386.162-7.514.162a2.18,2.18,0,0,1-.057-1.585c1.358-.162,2.258-.328,3.05-.49,1.639-.49,1.806-1.478,1.976-3.987,0-1.86.059-6.5.059-11.251,0-5.3-.059-11.087-.115-12.069-.115-1.529-.453-2.129-1.582-2.405a22.617,22.617,0,0,0-3.388-.6,1.8,1.8,0,0,1,.057-1.529c1.351,0,4.177.165,7.229.165,3.784,0,5.482-.165,7.061-.165.169.274.169,1.364-.056,1.529-1.017.165-2.089.328-2.712.49-1.128.331-1.523.766-1.582,2.516-.11,2.019-.057,4.8-.057,10.156,0,.221.116.494.286.548.275.037.914.075,4.052.094V240.96h2.427v3.975c.914,0,1.92,0,3.123,0,6.213-.054,8.357-.054,8.867-.107a.412.412,0,0,0,.339-.328c0-2.84,0-9.012-.113-10.978a1.779,1.779,0,0,0-1.129-1.8,17.494,17.494,0,0,0-3.336-.6,1.6,1.6,0,0,1,.059-1.582c1.3,0,4.066.218,7.06.218,2.826,0,6.1-.165,7.008-.165a2.066,2.066,0,0,1,0,1.529,20.176,20.176,0,0,0-2.937.546c-1.245.385-1.47.984-1.586,2.951-.112,1.914-.112,5.132-.112,11.632,0,4.747,0,10.762.112,12.616.171,1.526.51,2.127,1.586,2.455a16.01,16.01,0,0,0,3.615.6c.171.219.11,1.423-.228,1.585" transform="translate(0)" fill="#00408e"/>
    <path id="Path_349" data-name="Path 349" d="M219.666,360.091v6.042h4.678v-1.122h-3.508v-1.364h3.383v-1.061h-3.383V361.2h3.508v-1.1Z" transform="translate(-5.642 -84.639)" fill="#00408e"/>
    <path id="Path_350" data-name="Path 350" d="M262.452,360.068v3.756l-3.062-3.747h-.956v6.044h1.178v-4.075l3.287,4.083v-.007h.731v-6.053Z" transform="translate(-29.344 -84.625)" fill="#00408e"/>
    <path id="Path_351" data-name="Path 351" d="M298.216,360.091v6.042h4.678v-1.122h-3.509v-1.364h3.384v-1.061h-3.384V361.2h3.509v-1.1Z" transform="translate(-53.666 -84.639)" fill="#00408e"/>
    <path id="Path_352" data-name="Path 352" d="M341.831,366.119h-1.4l-1.823-2.02h-1.134v2.02H336.3v-6.051c.991,0,1.982.009,2.973.009a2.04,2.04,0,0,1,2.249,2,1.8,1.8,0,0,1-1.581,1.9l1.894,2.063Zm-4.358-4.981v1.933h1.8a.972.972,0,1,0,0-1.933Z" transform="translate(-76.947 -84.625)" fill="#00408e"/>
    <path id="Path_353" data-name="Path 353" d="M379.7,361.294a2.443,2.443,0,0,0-1.591-.6,2.091,2.091,0,0,0-2.149,2.227,1.944,1.944,0,0,0,2.149,2.02,2.118,2.118,0,0,0,1.411-.483v-1.069h-1.6v-1.02H380.6v2.548A3.159,3.159,0,0,1,378.11,366a2.964,2.964,0,0,1-3.3-3.083,3.122,3.122,0,0,1,3.3-3.273,3.361,3.361,0,0,1,2.323.925Z" transform="translate(-100.492 -84.366)" fill="#00408e"/>
    <path id="Path_354" data-name="Path 354" d="M418.643,360.091l-1.66,2.495-1.589-2.495h-1.4v.051l2.4,3.5v2.495h1.178v-2.495l2.492-3.5v-.051Z" transform="translate(-124.448 -84.639)" fill="#00408e"/>
    <path id="Path_355" data-name="Path 355" d="M484.527,361.225a1.814,1.814,0,0,0-1.482-.673c-.875,0-1.3.354-1.3.8,0,.526.642.675,1.394.76,1.3.156,2.517.483,2.517,1.924,0,1.347-1.232,1.926-2.626,1.926a2.607,2.607,0,0,1-2.721-1.485l.98-.493a1.793,1.793,0,0,0,1.76.959c.741,0,1.438-.25,1.438-.907,0-.569-.616-.8-1.446-.89-1.277-.146-2.455-.473-2.455-1.829,0-1.244,1.267-1.752,2.418-1.761a2.549,2.549,0,0,1,2.455,1.2Z" transform="translate(-164.997 -84.314)" fill="#00408e"/>
    <path id="Path_356" data-name="Path 356" d="M521.24,360.091l-2.8,6.043h1.277l.535-1.139h3.268l.526,1.139h1.287l-2.805-6.043Zm.642,1.269,1.162,2.573h-2.321Z" transform="translate(-188.303 -84.639)" fill="#00408e"/>
    <path id="Path_357" data-name="Path 357" d="M562.58,360.091l-1.892,4.7-1.885-4.7h-1.322l2.6,6.069H561.3l2.6-6.069Z" transform="translate(-212.175 -84.639)" fill="#00408e"/>
    <path id="Path_358" data-name="Path 358" d="M599.489,360.091v6.042h4.678v-1.122h-3.508v-1.364h3.384v-1.061h-3.384V361.2h3.508v-1.1Z" transform="translate(-237.857 -84.639)" fill="#00408e"/>
    <path id="Path_359" data-name="Path 359" d="M618.568,236.933h-.888v1.2h.888a.6.6,0,1,0,0-1.2m.573,3.037-.9-1.375h-.559v1.375h-.53v-3.481h1.419a1.122,1.122,0,0,1,1.175,1.06,1.02,1.02,0,0,1-.888,1.032l.93,1.389Zm-.817-4.284a2.536,2.536,0,1,0,2.536,2.536,2.523,2.523,0,0,0-2.536-2.536m0,5.573a3.037,3.037,0,1,1,3.037-3.037,3.04,3.04,0,0,1-3.037,3.037" transform="translate(-247.515 -8.275)" fill="#00408e"/>
  </g>
</svg>
