<svg height="200" viewBox="0 0 1920 200" width="1920" xmlns="http://www.w3.org/2000/svg" xmlns:xlink="http://www.w3.org/1999/xlink"><clipPath id="a"><path d="m0 0h1920v200h-1920z"/></clipPath><g clip-path="url(#a)"><g fill="#00408e" transform="translate(0 -1)"><path d="m1920 60.8s-87.6 86-284 86c-161.6 0-605.6-55-736-55-159 0-354.1 55-575 55-204.1 0-325-116-325-116v-30h1920z"/><path d="m1527.5 192.7q-45.15 0-93.3-3.8c-84-6.7-172.7-21.8-263.6-45-74.8-19.1-149.8-43.6-211.3-69.1-40.2-16.7-78.5-26.9-117-31.4a377.829 377.829 0 0 0 -103.4 2.2c-65.6 10.2-124.1 35-186.1 61.3-81.2 34.4-165.2 69.9-266.3 69.9-171.5 0-245.5-51.4-286.5-90.1v-.9c40.9 38.6 115.3 90 286.5 90 100.9 0 184.8-35.5 265.9-69.9 62.1-26.3 120.7-51.1 186.4-61.4a380.011 380.011 0 0 1 103.7-2.2c38.6 4.5 76.9 14.8 117.2 31.5 61.4 25.5 136.4 50 211.1 69 90.9 23.2 179.5 38.3 263.5 45 99 7.9 188.6 3.6 266.3-12.8 89.6-18.9 163.5-53.9 219.6-104.1l.7.7c-56.2 50.4-130.3 85.5-220 104.4-52.7 11.2-110.7 16.7-173.4 16.7z"/><path d="m1162.1 158.9c-199.5 0-396.2-22.1-533.4-61.1-101.5-28.9-220.8-36.2-344.9-21.2-104.6 12.7-208.3 41.3-283.8 78.2v-1.9c75.7-37 178.8-65.6 283.6-78.3 124.4-15.1 243.9-7.8 345.7 21.2 163.9 46.7 413.2 69.1 650.4 58.5 130.2-5.8 249.8-21 355.4-45 117.2-26.6 212.9-63.4 284.4-109.3l1.1 1.7c-71.7 46-167.6 82.9-285 109.6-105.7 24-225.4 39.2-355.7 45q-58.8 2.7-117.8 2.6z"/></g></g></svg>