<svg xmlns="http://www.w3.org/2000/svg" xmlns:xlink="http://www.w3.org/1999/xlink" width="1920" height="1719" viewBox="0 0 1920 1719">
  <defs>
    <clipPath id="clip-path">
      <rect id="Rectangle_254" data-name="Rectangle 254" width="1920" height="1719" transform="translate(0 2139)" fill="#fff" stroke="#707070" stroke-width="1"/>
    </clipPath>
  </defs>
  <g id="Mask_Group_130" data-name="Mask Group 130" transform="translate(0 -2139)" clip-path="url(#clip-path)">
    <g id="Group_603" data-name="Group 603">
      <path id="Path_426" data-name="Path 426" d="M-24540.98-9833.356c246.66,262.525,733.107,42.969,991.676,49.635s383.482,382,878.279,207.744,541.609-667.311,435.648-985.937-371.434-529.864-1056.16-497.9-645.994,344.2-1009.48,403.444S-24787.641-10095.882-24540.98-9833.356Z" transform="translate(24385 13281)" fill="#f2f5f9"/>
      <path id="Path_429" data-name="Path 429" d="M-24403.633-9938.14c246.66,262.525,620.387,40.229,878.955,46.895s353.721,358.512,848.518,184.257,546.744-536.3,440.783-854.926-371.434-529.864-1056.16-497.9-645.994,344.2-1009.48,403.444S-24650.293-10200.665-24403.633-9938.14Z" transform="translate(24309 13263)" fill="none" stroke="#f2f5f9" stroke-width="2"/>
      <path id="Path_430" data-name="Path 430" d="M-24540.98-9833.356c246.66,262.525,733.107,42.969,991.676,49.635s383.482,382,878.279,207.744,541.609-667.311,435.648-985.937-323.621-286.034-1008.348-254.069-681.369,194.822-1044.855,254.069S-24787.641-10095.882-24540.98-9833.356Z" transform="translate(24309 13330)" fill="none" stroke="#f2f5f9" stroke-width="2"/>
      <path id="Path_428" data-name="Path 428" d="M-24540.98-9833.356c246.66,262.525,733.107,42.969,991.676,49.635s383.482,382,878.279,207.744,541.609-667.311,435.648-985.937-337.625-522.436-1022.352-490.471-746.537,377.019-1110.35,473.819S-24787.641-10095.882-24540.98-9833.356Z" transform="translate(24402 13227)" fill="none" stroke="#f2f5f9" stroke-width="1"/>
      <path id="Path_431" data-name="Path 431" d="M-24607.994-9749.479c246.66,262.525,867.652-122.167,1159.172,11.281s460.611,345.641,938.768,124,380.639-629.086,274.678-947.712-337.625-522.436-1022.352-490.471-746.537,377.019-1110.35,473.819S-24854.654-10012-24607.994-9749.479Z" transform="translate(24402 13327)" fill="none" stroke="#f2f5f9" stroke-width="1"/>
    </g>
  </g>
</svg>
