<svg xmlns="http://www.w3.org/2000/svg" width="100.365" height="93.6" viewBox="0 0 100.365 93.6">
  <path id="Path_445" data-name="Path 445" d="M939.647,554.325H924.211a4.443,4.443,0,0,1-4.438-4.438V527.572a2.392,2.392,0,0,0-2.39-2.39H900.465a2.392,2.392,0,0,0-2.39,2.39v22.315a4.443,4.443,0,0,1-4.438,4.438H878.2a4.443,4.443,0,0,1-4.438-4.438V515.822a2.392,2.392,0,0,0-2.39-2.39H862.3a1.706,1.706,0,0,1-1.209-2.913L873.2,498.4a1.915,1.915,0,0,0,.561-1.344v-16.1A3.957,3.957,0,0,1,877.716,477H882.1a3.958,3.958,0,0,1,3.953,3.953v4.6l20.075-20.072a3.962,3.962,0,0,1,5.591,0l45.038,45.041a1.706,1.706,0,0,1-1.206,2.913h-9.077a2.392,2.392,0,0,0-2.39,2.39v34.065A4.443,4.443,0,0,1,939.647,554.325Zm-39.183-31.191h16.919a4.443,4.443,0,0,1,4.438,4.438v22.315a2.392,2.392,0,0,0,2.39,2.39h15.437a2.393,2.393,0,0,0,2.39-2.39V515.822a4.443,4.443,0,0,1,4.438-4.438h8.25l-44.453-44.456a1.911,1.911,0,0,0-2.7,0l-21.243,21.24A1.364,1.364,0,0,1,884,487.2v-6.249a1.907,1.907,0,0,0-1.905-1.9h-4.383a1.907,1.907,0,0,0-1.9,1.9v16.1a3.98,3.98,0,0,1-1.161,2.793L863.12,511.384h8.254a4.443,4.443,0,0,1,4.438,4.438v34.065a2.392,2.392,0,0,0,2.39,2.39h15.436a2.392,2.392,0,0,0,2.39-2.39V527.572A4.443,4.443,0,0,1,900.465,523.134Zm54.843-11.166h0Z" transform="translate(-858.74 -462.525)" fill="#00408e" stroke="#00408e" stroke-width="3.6"/>
</svg>
