<svg xmlns="http://www.w3.org/2000/svg" width="121.318" height="93.084" viewBox="0 0 121.318 93.084">
  <g id="Group_614" data-name="Group 614" transform="translate(-1232.899 -173.312)">
    <g id="Group_613" data-name="Group 613" transform="translate(1234.4 174.896)">
      <path id="Path_446" data-name="Path 446" d="M1347.343,206.244h-7.035v-8.069a5.385,5.385,0,0,0-5.376-5.376h-39.047l3.79-15.64a1.8,1.8,0,0,0-3.093-1.645c-.022.022-.041.049-.063.072L1283.5,192.8h-43.727a5.382,5.382,0,0,0-5.377,5.376v43.444a5.382,5.382,0,0,0,5.377,5.377h37.973l-3.79,15.64a1.8,1.8,0,0,0,3.093,1.645.817.817,0,0,0,.058-.072L1290.125,247h44.806a5.385,5.385,0,0,0,5.376-5.377v-8.069h7.035a5.385,5.385,0,0,0,5.376-5.377V211.621A5.385,5.385,0,0,0,1347.343,206.244Zm-107.566,38.269a2.9,2.9,0,0,1-2.9-2.9V198.175a2.9,2.9,0,0,1,2.9-2.9h41.852l-22.949,30.353a1.351,1.351,0,0,0,1.079,2.162h22.648l-4.055,16.718Zm37.815,14.588,3.111-12.843.112-.445,4.617-19.052a1.347,1.347,0,0,0-1.313-1.663h-21.654l33.576-44.406-7.84,32.34a1.347,1.347,0,0,0,1.313,1.663h21.65Zm72.646-30.928a2.9,2.9,0,0,1-2.9,2.9h-8.276a1.24,1.24,0,0,0-1.241,1.241v9.31a2.9,2.9,0,0,1-2.9,2.9H1292l22.949-30.353a1.348,1.348,0,0,0-1.074-2.162h-22.648l4.055-16.718h39.65a2.9,2.9,0,0,1,2.9,2.9V219.9a1.241,1.241,0,0,0,2.481,0V208.726h7.035a2.9,2.9,0,0,1,2.9,2.9Z" transform="translate(-1234.4 -174.896)" fill="#00408e" stroke="#00408e" stroke-width="3"/>
      <path id="Path_447" data-name="Path 447" d="M1337.65,332.65a2.539,2.539,0,0,1-.25.99Z" transform="translate(-1291.151 -262.165)" fill="#00408e" stroke="#00408e" stroke-width="3"/>
    </g>
  </g>
</svg>
