<svg xmlns="http://www.w3.org/2000/svg" width="94.213" height="90" viewBox="0 0 94.213 90">
  <g id="Group_473" data-name="Group 473" transform="translate(-911.001 -440.17)">
    <g id="Group_468" data-name="Group 468" transform="translate(911 440.17)">
      <path id="Path_361" data-name="Path 361" d="M1005.213,487.277q0,.757-.031,1.513a47.355,47.355,0,0,1-26.953,41.1,3.026,3.026,0,0,1-1.271.284,2.974,2.974,0,0,1-1.271-5.664,41.1,41.1,0,0,0,16.392-14.059l-2.721-1.482a3.155,3.155,0,0,1,3.005-5.548l2.869,1.555a40.823,40.823,0,0,0,3.909-14.543h-3.026a3.152,3.152,0,0,1,0-6.3h3.037a40.922,40.922,0,0,0-4.1-14.984l-2.585,1.492a3.154,3.154,0,0,1-3.152-5.464l2.522-1.45a41.5,41.5,0,0,0-10.5-10.4l-1.418,2.459a3.169,3.169,0,0,1-2.732,1.576,3.072,3.072,0,0,1-1.576-.431,3.145,3.145,0,0,1-1.156-4.3l1.419-2.469a40.949,40.949,0,0,0-14.616-3.919V450.5a3.152,3.152,0,0,1-6.3,0v-4.266a40.828,40.828,0,0,0-14.669,3.951l1.408,2.438a3.154,3.154,0,0,1-1.156,4.3,3.072,3.072,0,0,1-1.576.431,3.143,3.143,0,0,1-2.732-1.576l-1.4-2.417a41.292,41.292,0,0,0-10.466,10.382l2.427,1.324a3.156,3.156,0,0,1-1.5,5.926,3.189,3.189,0,0,1-1.5-.378l-2.637-1.429a40.888,40.888,0,0,0-4.077,14.942h3.383a3.152,3.152,0,0,1,0,6.3h-3.373a40.977,40.977,0,0,0,3.9,14.522l2.7-1.555a3.154,3.154,0,0,1,3.152,5.464l-2.711,1.566a41.173,41.173,0,0,0,16.382,14.07,2.971,2.971,0,1,1-2.543,5.37,47.109,47.109,0,1,1,67.229-44.091C1005.2,486.278,1005.213,486.772,1005.213,487.277Z" transform="translate(-911 -440.17)" fill="#00408e"/>
    </g>
    <g id="Group_469" data-name="Group 469" transform="translate(952.327 473.612)">
      <path id="Path_362" data-name="Path 362" d="M976.778,477.885l-14.911,8.627a5.774,5.774,0,1,1-5.758-6.105,5.634,5.634,0,0,1,2.616.641l14.9-8.627a3.154,3.154,0,1,1,3.152,5.464Z" transform="translate(-950.33 -471.996)" fill="#00408e"/>
    </g>
  </g>
</svg>
