<?xml version="1.0" encoding="UTF-8"?>
<svg width="1920px" height="1067px" viewBox="0 0 1920 1067" version="1.1" xmlns="http://www.w3.org/2000/svg" xmlns:xlink="http://www.w3.org/1999/xlink">
    <!-- Generator: Sketch 52.6 (67491) - http://www.bohemiancoding.com/sketch -->
    <title>Mask Group 129</title>
    <desc>Created with Sketch.</desc>
    <defs>
        <rect id="path-1" x="0" y="0" width="1920" height="1074"></rect>
    </defs>
    <g id="Page-1" stroke="none" stroke-width="1" fill="none" fill-rule="evenodd">
        <g id="Mask-Group-129">
            <mask id="mask-2" fill="white">
                <use xlink:href="#path-1"></use>
            </mask>
            <g id="Rectangle_253"></g>
            <g id="Mask_Group_129" mask="url(#mask-2)">
                <g transform="translate(-348.000000, -143.000000)" id="Group_617">
                    <g>
                        <g id="Path_58" transform="translate(0.797000, 2.654000)">
                            <path d="M311.492,134.346 C642.566,-29.134 755.249,63.246 1318.172,48.21 C1881.095,33.174 1588.95,-59.165 2301.738,61.444 C3014.526,182.053 2794.603,669.944 2649.586,945.926 C2504.569,1221.908 2050.402,1239.415 1677.037,1177.751 C1303.672,1116.087 1011.837,1139.051 688.737,1184.283 C365.637,1229.515 134.172,1125.635 44.772,850.583 C-44.628,575.531 -19.582,297.825 311.492,134.346 Z" id="Path"></path>
                            <path d="M1820.26721,0.268310547 L1820.26721,1.26831055 C1795.73035,1.26904297 1773.44263,2.5802002 1750.1261,5.39489746 C1728.85449,7.96289062 1708.79688,11.4906006 1685.57178,15.5751953 C1668.88342,18.5102539 1649.96838,21.8371582 1628.54724,25.1206055 C1604.03613,28.8775635 1579.69373,32.0501709 1554.12878,34.8201904 C1487.46338,42.0429688 1410.28992,46.7498779 1318.19836,49.2098389 C1275.14307,50.3602295 1231.91187,50.9433594 1189.70569,50.9433594 C1135.64648,50.9433594 1081.58801,50.0117188 1024.44031,48.0948486 C974.488403,46.4194336 928.287964,44.1948242 887.526123,42.2321777 C824.624146,39.2037354 770.299927,36.5878906 719.309204,36.5878906 C701.543335,36.5878906 685.237183,36.9017334 669.45874,37.5471191 C652.563354,38.2382812 636.760742,39.2883301 621.147949,40.7567139 C587.972168,43.8779297 556.671387,48.8382568 525.456055,55.9217529 C509.205322,59.6098633 492.642578,63.9682617 476.227295,68.8763428 C459.461426,73.8894043 442.173828,79.6774902 424.844971,86.0802002 C407.25293,92.579834 388.930664,99.9664307 370.387207,108.03479 C351.66333,116.182129 331.997314,125.335938 311.934814,135.242188 C291.535645,145.315186 271.865967,156.055176 253.472168,167.164062 C235.391846,178.084106 218.041748,189.663696 201.904053,201.581421 C186.048828,213.290649 170.92334,225.651733 156.947998,238.321411 C143.223389,250.763672 130.227295,263.848694 118.319824,277.212891 C106.631836,290.33136 95.6687012,304.083313 85.7355957,318.085999 C75.9899902,331.824829 66.9648437,346.186401 58.911377,360.77179 C51.0141602,375.074829 43.8322754,389.989868 37.5644531,405.102173 C31.4221191,419.914062 25.9880371,435.326355 21.4133301,450.910217 C16.9326172,466.175598 13.1523437,482.02832 10.1772461,498.02832 C7.26538086,513.690979 5.04492187,529.927917 3.57714844,546.28833 C2.1418457,562.291748 1.38720703,578.856018 1.33447266,595.519836 C1.28295898,611.808716 1.90112305,628.642151 3.1706543,645.553711 C4.41064453,662.070251 6.30688477,679.116394 8.80688477,696.218323 C11.2456055,712.906006 14.3269043,730.106384 17.9638672,747.341736 C21.5092773,764.143677 25.6806641,781.440613 30.3623047,798.752563 C34.9211426,815.611389 40.0891113,832.947144 45.7226562,850.278687 C50.4306641,864.764038 55.6184082,879.004028 61.1418457,892.602905 C66.6364746,906.132141 72.6159668,919.402527 78.9138184,932.046021 C85.1804199,944.62561 91.935791,956.933716 98.9929199,968.628296 C106.015625,980.265625 113.532227,991.618286 121.333496,1002.37134 C129.097656,1013.07324 137.359863,1023.47827 145.890381,1033.29712 C154.381592,1043.07104 163.374268,1052.53528 172.618408,1061.42676 C181.822266,1070.27979 191.530762,1078.81055 201.474121,1086.78247 C211.375732,1094.72095 221.7854,1102.32556 232.41333,1109.38525 C242.998779,1116.41638 254.094482,1123.10181 265.392578,1129.25562 C276.647705,1135.38599 288.415283,1141.15869 300.368896,1146.41406 C312.279053,1151.6499 324.703857,1156.51709 337.298096,1160.87988 C349.849121,1165.22791 362.916504,1169.19556 376.136963,1172.67297 C389.314209,1176.13904 403.008789,1179.21411 416.840332,1181.8125 C430.629639,1184.40295 444.936523,1186.59143 459.364258,1188.31714 C473.750732,1190.03796 488.655029,1191.34644 503.663818,1192.20605 C518.632324,1193.06335 534.119141,1193.49792 549.693848,1193.49792 C571.611816,1193.49792 594.436035,1192.63635 617.532227,1190.93713 C640.557129,1189.24292 664.466797,1186.67139 688.598022,1183.29333 C793.006104,1168.67749 878.673828,1158.61719 958.199951,1151.6322 C1053.53113,1143.25903 1141.83838,1139.18872 1228.16687,1139.18872 C1263.7323,1139.18872 1299.61414,1139.89868 1334.81531,1141.29944 C1371.21997,1142.74792 1408.16956,1144.98486 1444.63684,1147.94873 C1482.17993,1150.99988 1520.48267,1154.92407 1558.48145,1159.61218 C1597.45691,1164.42102 1637.3999,1170.19214 1677.20032,1176.76562 C1733.50842,1186.06519 1789.93994,1193.26758 1844.92688,1198.17249 C1903.56689,1203.40295 1961.01953,1206.05518 2015.68921,1206.05518 C2050.47461,1206.05518 2084.6665,1204.97522 2117.31494,1202.84521 C2151.27917,1200.62939 2184.39722,1197.22327 2215.75,1192.72095 C2248.34033,1188.04102 2279.8396,1182.05945 2309.37231,1174.94214 C2324.55835,1171.28247 2339.53027,1167.24829 2353.87231,1162.95142 C2368.4834,1158.5741 2382.84619,1153.80298 2396.56152,1148.77063 C2410.53003,1143.64526 2424.21533,1138.10645 2437.2373,1132.30786 C2450.49561,1126.40405 2463.43579,1120.06677 2475.698,1113.4718 C2488.17871,1106.75903 2500.30566,1099.59216 2511.74194,1092.17017 C2523.37842,1084.61829 2534.62451,1076.59143 2545.16797,1068.3125 C2555.89331,1059.89062 2566.19141,1050.97253 2575.77637,1041.80566 C2585.52368,1032.48364 2594.80688,1022.64331 2603.36719,1012.55786 C2612.0708,1002.30444 2620.27148,991.509766 2627.74194,980.474854 C2635.33496,969.258301 2642.38647,957.478271 2648.7002,945.461792 C2668.58081,907.627136 2694.46411,857.20752 2718.3584,802.688293 C2730.27954,775.487915 2740.94995,748.953308 2750.07251,723.821777 C2755.05078,710.108276 2759.69849,696.457153 2763.88696,683.247131 C2768.28735,669.369446 2772.31494,655.555603 2775.85791,642.190247 C2779.56348,628.212524 2782.84961,614.306763 2785.62524,600.859436 C2788.51758,586.848328 2790.94116,572.920593 2792.82837,559.463684 C2794.78906,545.486023 2796.22876,531.60675 2797.10767,518.211792 C2798.01807,504.334839 2798.35303,490.574463 2798.10352,477.312561 C2797.84521,463.604065 2796.95483,450.031738 2795.45728,436.9729 C2793.91187,423.50061 2791.67578,410.186401 2788.81079,397.400208 C2785.85962,384.231018 2782.15674,371.243713 2777.80493,358.798706 C2773.3291,345.999817 2768.03833,333.407532 2762.08032,321.372131 C2754.7373,306.539856 2746.14868,292.085205 2736.55273,278.409485 C2726.65991,264.310608 2715.41333,250.635986 2703.125,237.765259 C2690.47461,224.515259 2676.35889,211.738281 2661.16943,199.789429 C2645.55298,187.504517 2628.35693,175.744507 2610.05811,164.835938 C2591.26807,153.634888 2570.78076,143.012207 2549.16455,133.263672 C2526.99414,123.264893 2503.00562,113.901001 2477.86621,105.431763 C2452.10889,96.7548828 2424.41113,88.7706299 2395.5415,81.7010498 C2365.99194,74.4648438 2334.37598,67.980957 2301.57153,62.4306641 C2164.8877,39.3024902 2065.69568,24.0751953 1989.40796,14.5090332 C1952.02832,9.82177734 1920.12341,6.48950195 1891.86963,4.32141113 C1865.0918,2.26635742 1841.67065,1.26794434 1820.26721,1.26831055 L1820.26721,0.268310547 Z M1820.26709,0.268432617 C1902.93506,0.266357422 2028.48254,15.2075195 2301.7384,61.444458 C3014.52954,182.053711 2794.60254,669.940247 2649.58569,945.926758 C2546.99219,1141.17603 2289.66528,1207.05518 2015.68896,1207.05518 C1902.39697,1207.05518 1786.26196,1195.79138 1677.03723,1177.7522 C1515.17114,1151.01868 1368.57654,1140.18884 1228.16675,1140.18884 C1044.703,1140.18884 871.761841,1158.66235 688.73645,1184.28369 C640.283447,1191.06653 593.855225,1194.49792 549.693848,1194.49792 C299.373291,1194.49792 120.765137,1084.38855 44.7714844,850.587891 C-44.6289062,575.540222 -19.5820312,297.825195 311.492188,134.345581 C473.614258,54.2921143 583.411621,35.5880127 719.309082,35.5880127 C838.403564,35.5880127 977.612305,49.9431152 1189.70569,49.9431152 C1229.82581,49.9431152 1272.47559,49.4309082 1318.17188,48.2102051 C1665.29175,38.9371338 1687.29541,0.271850586 1820.26709,0.268432617 Z" id="Shape" fill="#00408E" fill-rule="nonzero"></path>
                        </g>
                        <g id="Path_15" transform="translate(53.797000, 0.654000)">
                            <path d="M114.482,193.977 C284.857,-21.287 436.393,-8.286 948.506,9.14 C1460.619,26.566 1830.042,-10.048 2211.451,93.455 C2592.86,196.958 2574.751,992.546 1985.051,1130.242 C1395.351,1267.938 506.9,1184.759 229.655,1047.787 C-47.59,910.815 -55.893,409.242 114.482,193.977 Z" id="Path"></path>
                            <path d="M615.569702,2.37902832 C545.968384,2.37902832 492.046021,4.8684082 445.872437,10.2130127 C433.532104,11.6413574 421.530396,13.3083496 410.20105,15.1677246 C398.676025,17.059082 387.432007,19.2174072 376.781372,21.5823975 C365.990356,23.9790039 355.427734,26.6723633 345.387451,29.5876465 C335.249756,32.5313721 325.291382,35.8037109 315.789673,39.3140869 C306.226074,42.8474121 296.795044,46.743042 287.758789,50.8934326 C278.690063,55.0587158 269.708008,59.6230469 261.06311,64.4589844 C252.4104,69.2993164 243.799805,74.5777588 235.470459,80.1467285 C227.156738,85.7053223 218.839844,91.7434082 210.750488,98.0930176 C202.699463,104.413086 194.599121,111.25769 186.674316,118.436768 C178.810791,125.560425 170.85083,133.257324 163.015381,141.314331 C155.266113,149.283081 147.37085,157.878662 139.548828,166.863403 C131.841309,175.716064 123.935303,185.256348 116.050781,195.21875 C103.674316,210.855347 91.9887695,228.374023 81.3173828,247.287354 C70.8620605,265.817749 61.2121582,285.984985 52.6347656,307.22937 C44.1870117,328.153015 36.6540527,350.43335 30.2443848,373.45105 C23.892334,396.262024 18.5546875,420.117737 14.3791504,444.355347 C10.2131348,468.538391 7.14697266,493.431702 5.26635742,518.343689 C3.37695312,543.373047 2.65844727,568.766357 3.13012695,593.818726 C3.60742187,619.157043 5.30981445,644.512695 8.19018555,669.181702 C11.1210937,694.282715 15.317627,719.063721 20.6633301,742.835693 C28.215332,776.417053 38.1669922,808.509033 50.2424316,838.220703 C56.4353027,853.459351 63.2807617,868.286743 70.5874023,882.29071 C78.045166,896.58374 86.1660156,910.368408 94.7248535,923.261353 C103.468994,936.434326 112.888184,949.004395 122.719971,960.622681 C132.772949,972.502441 143.512695,983.687378 154.640137,993.867432 C166.024658,1004.28271 178.108398,1013.91333 190.555176,1022.4917 C203.29541,1031.27271 216.748291,1039.18005 230.540283,1045.99402 C252.341064,1056.76465 278.394775,1067.40002 307.978027,1077.60498 C337.141357,1087.66504 370.157104,1097.453 406.107788,1106.69641 C441.758789,1115.86304 480.787354,1124.62109 522.109741,1132.72705 C563.367432,1140.82031 607.467041,1148.37341 653.184082,1155.17542 C699.151367,1162.01465 747.383423,1168.18909 796.539429,1173.526 C846.299438,1178.92908 897.725342,1183.552 949.388428,1187.26709 C1056.48669,1194.96777 1165.17212,1198.87231 1272.42578,1198.87231 C1400.94946,1198.87231 1525.19043,1193.2644 1641.698,1182.2041 C1702.89331,1176.39478 1762.36548,1169.01465 1818.4624,1160.26941 C1847.30237,1155.77307 1875.78271,1150.83167 1903.11169,1145.58203 C1930.97803,1140.229 1958.39478,1134.41235 1984.6001,1128.29333 C2004.70703,1123.59839 2024.61035,1118.01135 2043.75708,1111.68774 C2062.51501,1105.49268 2081.0437,1098.42603 2098.8291,1090.68433 C2116.25403,1083.1001 2133.42444,1074.66736 2149.86304,1065.62134 C2165.9707,1056.75769 2181.7981,1047.07275 2196.9054,1036.83545 C2254.75134,997.637695 2304.9353,948.635376 2346.06396,891.189026 C2355.81396,877.571045 2365.15283,863.320068 2373.82104,848.832031 C2382.34229,834.589722 2390.42749,819.765015 2397.85083,804.77002 C2405.15698,790.01239 2412.00195,774.727722 2418.1958,759.340393 C2424.2998,744.176392 2429.91895,728.545044 2434.89795,712.881042 C2444.69214,682.066711 2452.31152,650.220032 2457.5437,618.226013 C2462.6814,586.812012 2465.56982,554.946716 2466.12939,523.515015 C2466.573,498.591736 2465.55249,473.664368 2463.09619,449.424683 C2460.64331,425.222046 2456.72241,401.338013 2451.44141,378.436035 C2446.13574,355.427063 2439.37598,333.05603 2431.3501,311.945068 C2423.23877,290.609009 2413.7041,270.219727 2403.01099,251.343384 C2380.93896,212.380005 2353.80273,179.406982 2322.35547,153.341064 C2314.31714,146.678101 2305.89771,140.397095 2297.33179,134.672729 C2288.65161,128.87207 2279.59277,123.490356 2270.40674,118.677002 C2261.09167,113.796021 2251.39941,109.371094 2241.59937,105.524414 C2231.65503,101.620728 2221.33508,98.2093506 2210.927,95.3850098 C2177.23169,86.2410889 2142.46973,77.901001 2107.60645,70.5970459 C2074.11072,63.5793457 2039.31177,57.2650146 2004.17676,51.8297119 C1938.69775,41.699707 1870.02075,34.199707 1794.2207,28.9017334 C1759.93237,26.5050049 1724.63501,24.5793457 1686.31177,23.0146484 C1651.92578,21.6107178 1615.68848,20.5246582 1575.52942,19.6943359 C1500.55774,18.1444092 1423.82666,17.7330322 1342.59033,17.2973633 C1281.33569,16.9693604 1217.99536,16.6297607 1152.44006,15.7727051 C1078.33179,14.8037109 1011.60168,13.2877197 948.437744,11.1386719 C931.074097,10.5477295 914.045044,9.95898438 897.576416,9.39001465 C788.724121,5.62805176 694.715454,2.37902832 615.569702,2.37902832 Z M615.56958,0.37902832 C706.626587,0.37902832 815.382568,4.60986328 948.505737,9.13964844 C1460.61914,26.5654297 1830.04199,-10.048584 2211.45068,93.4547119 C2592.85938,196.958008 2574.74805,992.546021 1985.05469,1130.24109 C1772.19788,1179.94385 1520.3407,1200.87231 1272.42578,1200.87231 C833.523315,1200.87231 406.822388,1135.31738 229.654297,1047.78711 C-47.5869141,910.814697 -55.8925781,409.242065 114.482422,193.977417 C240.568604,34.6705322 356.338379,0.37902832 615.56958,0.37902832 Z" id="Shape" fill="#00408E" fill-rule="nonzero"></path>
                        </g>
                        <path d="M277.477,137 C466.637,-15.277 1612.157,55.177 2138.177,81.626 C2664.197,108.075 2796.516,774.14 2663.329,1018.318 C2530.142,1262.496 2071.805,1101.962 1764.438,1103.818 C1538.832,1105.183 1338.892,1182.447 1015.798,1162.886 C692.704,1143.325 392.477,1113.096 225.528,859.329 C58.579,605.562 88.316,289.277 277.477,137 Z" id="Path_13" fill="#00408E"></path>
                    </g>
                </g>
            </g>
        </g>
    </g>
</svg>