<?xml version="1.0" encoding="UTF-8"?>
<svg width="1864px" height="180px" viewBox="0 0 1864 180" version="1.1" xmlns="http://www.w3.org/2000/svg" xmlns:xlink="http://www.w3.org/1999/xlink">
    <!-- Generator: Sketch 52.6 (67491) - http://www.bohemiancoding.com/sketch -->
    <title>Mask Group 129</title>
    <desc>Created with Sketch.</desc>
    <defs>
        <rect id="path-1" x="0" y="0" width="1864" height="186"></rect>
    </defs>
    <g id="Page-1" stroke="none" stroke-width="1" fill="none" fill-rule="evenodd">
        <g id="Mask-Group-129">
            <mask id="mask-2" fill="white">
                <use xlink:href="#path-1"></use>
            </mask>
            <g id="Rectangle_253"></g>
            <g id="Group_617" mask="url(#mask-2)">
                <g transform="translate(-365.000000, -823.000000)">
                    <g id="Path_58" stroke-width="1" fill="none" transform="translate(0.797000, 2.200344)">
                        <path d="M311.492,111.38182 C642.566,-24.1540347 755.249,52.4351643 1318.172,39.9693146 C1881.095,27.5034649 1588.95,-49.0517424 2301.738,50.9411858 C3014.526,150.934114 2794.603,555.428386 2649.586,784.235924 C2504.569,1013.04346 2050.402,1027.55794 1677.037,976.434355 C1303.672,925.310775 1011.837,944.349467 688.737,981.84982 C365.637,1019.35017 134.172,933.226705 44.772,705.1902 C-44.628,477.153694 -19.582,246.916846 311.492,111.38182 Z" id="Path"></path>
                        <path d="M1820.26721,0.22244739 L1820.26721,1.05151428 C1795.73035,1.0521215 1773.44263,2.13915854 1750.1261,4.47273084 C1728.85449,6.60176894 1708.79688,9.52647646 1685.57178,12.9128787 C1668.88342,15.3462386 1649.96838,18.1044648 1628.54724,20.8266622 C1604.03613,23.9414317 1579.69373,26.5717354 1554.12878,28.8682669 C1487.46338,34.8564332 1410.28992,38.7587758 1318.19836,40.7982479 C1275.14307,41.7519987 1231.91187,42.2354524 1189.70569,42.2354524 C1135.64648,42.2354524 1081.58801,41.46306 1024.44031,39.8738464 C974.488403,38.4848153 928.287964,36.6404653 887.526123,35.0133001 C824.624146,32.5025188 770.299927,30.3338086 719.309204,30.3338086 C701.543335,30.3338086 685.237183,30.5940052 669.45874,31.1290732 C652.563354,31.7020928 636.760742,32.5726535 621.147949,33.7900419 C587.972168,36.3777386 556.671387,40.4901816 525.456055,46.3628736 C509.205322,49.4205638 492.642578,53.0339676 476.227295,57.1030951 C459.461426,61.2592584 442.173828,66.0579688 424.844971,71.3662436 C407.25293,76.7548747 388.930664,82.8788575 370.387207,89.5680671 C351.66333,96.3227559 331.997314,103.911876 311.934814,112.124819 C291.535645,120.476008 271.865967,129.380179 253.472168,138.590189 C235.391846,147.643636 218.041748,157.24389 201.904053,167.124481 C186.048828,176.832215 170.92334,187.08038 156.947998,197.58439 C143.223389,207.899857 130.227295,218.748215 118.319824,229.828028 C106.631836,240.704117 95.6687012,252.105406 85.7355957,263.714569 C75.9899902,275.104978 66.9648437,287.011682 58.911377,299.103944 C51.0141602,310.962121 43.8322754,323.327686 37.5644531,335.856797 C31.4221191,348.136845 25.9880371,360.914666 21.4133301,373.83473 C16.9326172,386.490752 13.1523437,399.633719 10.1772461,412.898789 C7.26538086,425.884181 5.04492187,439.345689 3.57714844,452.909565 C2.1418457,466.177469 1.38720703,479.910357 1.33447266,493.725777 C1.28295898,507.230347 1.90112305,521.186391 3.1706543,535.207205 C4.41064453,548.900522 6.30688477,563.032915 8.80688477,577.211557 C11.2456055,591.046763 14.3269043,605.307027 17.9638672,619.596286 C21.5092773,633.526219 25.6806641,647.866536 30.3623047,662.219301 C34.9211426,676.196395 40.0891113,690.568895 45.7226562,704.937904 C50.4306641,716.947229 55.6184082,728.753133 61.1418457,740.027512 C66.6364746,751.244153 72.6159668,762.246191 78.9138184,772.728493 C85.1804199,783.157814 91.935791,793.362057 98.9929199,803.057646 C106.015625,812.70577 113.532227,822.117885 121.333496,831.032885 C129.097656,839.905479 137.359863,848.531944 145.890381,856.672426 C154.381592,864.775664 163.374268,872.622147 172.618408,879.993778 C181.822266,887.33353 191.530762,894.406102 201.474121,901.01536 C211.375732,907.596888 221.7854,913.901622 232.41333,919.754579 C242.998779,925.583854 254.094482,931.126518 265.392578,936.228437 C276.647705,941.310925 288.415283,946.096884 300.368896,950.453938 C312.279053,954.794799 324.703857,958.830023 337.298096,962.44707 C349.849121,966.051872 362.916504,969.34132 376.136963,972.224332 C389.314209,975.097931 403.008789,977.647372 416.840332,979.80161 C430.629639,981.94927 444.936523,983.763663 459.364258,985.194391 C473.750732,986.62107 488.655029,987.705881 503.663818,988.418562 C518.632324,989.129321 534.119141,989.489609 549.693848,989.489609 C571.611816,989.489609 594.436035,988.775308 617.532227,987.366542 C640.557129,985.961925 664.466797,983.829952 688.598022,981.029321 C793.006104,968.911809 878.673828,960.571145 958.199951,954.780125 C1053.53113,947.838208 1141.83838,944.463646 1228.16687,944.463646 C1263.7323,944.463646 1299.61414,945.052251 1334.81531,946.213572 C1371.21997,947.414464 1408.16956,949.269036 1444.63684,951.72628 C1482.17993,954.255886 1520.48267,957.509305 1558.48145,961.396062 C1597.45691,965.38291 1637.3999,970.167553 1677.20032,975.617413 C1733.50842,983.327371 1789.93994,989.298636 1844.92688,993.365132 C1903.56689,997.701541 1961.01953,999.90041 2015.68921,999.90041 C2050.47461,999.90041 2084.6665,999.005054 2117.31494,997.239138 C2151.27917,995.402074 2184.39722,992.578167 2215.75,988.845443 C2248.34033,984.965466 2279.8396,980.006347 2309.37231,974.105621 C2324.55835,971.071512 2339.53027,967.726907 2353.87231,964.16451 C2368.4834,960.53542 2382.84619,956.579843 2396.56152,952.40769 C2410.53003,948.158418 2424.21533,943.566368 2437.2373,938.758954 C2450.49561,933.864301 2463.43579,928.610272 2475.698,923.1426 C2488.17871,917.577266 2500.30566,911.635451 2511.74194,905.482119 C2523.37842,899.221106 2534.62451,892.566306 2545.16797,885.702519 C2555.89331,878.720221 2566.19141,871.326527 2575.77637,863.726579 C2585.52368,855.997999 2594.80688,847.839706 2603.36719,839.478194 C2612.0708,830.977425 2620.27148,822.027915 2627.74194,812.879234 C2635.33496,803.579962 2642.38647,793.81353 2648.7002,783.851065 C2668.58081,752.483604 2694.46411,710.68237 2718.3584,665.482285 C2730.27954,642.931352 2740.94995,620.932388 2750.07251,600.096668 C2755.05078,588.727258 2759.69849,577.409564 2763.88696,566.457572 C2768.28735,554.952043 2772.31494,543.499443 2775.85791,532.418669 C2779.56348,520.830202 2782.84961,509.301395 2785.62524,498.152662 C2788.51758,486.536516 2790.94116,474.989493 2792.82837,463.832815 C2794.78906,452.244399 2796.22876,440.737554 2797.10767,429.632237 C2798.01807,418.127315 2798.35303,406.719043 2798.10352,395.724039 C2797.84521,384.358779 2796.95483,373.106412 2795.45728,362.279762 C2793.91187,351.110333 2791.67578,340.071963 2788.81079,329.471353 C2785.85962,318.553214 2782.15674,307.78587 2777.80493,297.468126 C2773.3291,286.856991 2768.03833,276.417144 2762.08032,266.438992 C2754.7373,254.142044 2746.14868,242.158172 2736.55273,230.820085 C2726.65991,219.131173 2715.41333,207.793997 2703.125,197.123303 C2690.47461,186.138167 2676.35889,175.545198 2661.16943,165.6388 C2645.55298,155.453786 2628.35693,145.703951 2610.05811,136.660018 C2591.26807,127.373598 2570.78076,118.566685 2549.16455,110.484498 C2526.99414,102.194841 2503.00562,94.4315483 2477.86621,87.4099833 C2452.10889,80.2162695 2424.41113,73.5967898 2395.5415,67.735635 C2365.99194,61.7363362 2334.37598,56.3607604 2301.57153,51.7591963 C2164.8877,32.5843932 2065.69568,19.9599472 1989.40796,12.028959 C1952.02832,8.14291037 1920.12341,5.38023118 1891.86963,3.58273887 C1865.0918,1.87896189 1841.67065,1.05121066 1820.26721,1.05151428 L1820.26721,0.22244739 Z M1820.26709,0.222548594 C1902.93506,0.220828119 2028.48254,12.6080509 2301.7384,50.9415655 C3014.52954,150.934703 2794.60254,555.425275 2649.58569,784.236552 C2546.99219,946.111255 2289.66528,1000.72948 2015.68896,1000.72948 C1902.39697,1000.72948 1786.26196,991.391038 1677.03723,976.435348 C1515.17114,954.271471 1368.57654,945.292814 1228.16675,945.292814 C1044.703,945.292814 871.761841,960.60859 688.73645,981.850393 C640.283447,987.473819 593.855225,990.318676 549.693848,990.318676 C299.373291,990.318676 120.765137,899.030639 44.7714844,705.194254 C-44.6289062,477.16134 -19.5820312,246.917008 311.492188,111.381473 C473.614258,45.0117941 583.411621,29.5048429 719.309082,29.5048429 C838.403564,29.5048429 977.612305,41.4061831 1189.70569,41.4061831 C1229.82581,41.4061831 1272.47559,40.9815292 1318.17188,39.9694846 C1665.29175,32.2814883 1687.29541,0.225382319 1820.26709,0.222548594 Z" id="Shape" fill="#00408E" fill-rule="nonzero"></path>
                    </g>
                    <g id="Path_15" stroke-width="1" fill="none" transform="translate(53.797000, 0.542210)">
                        <path d="M114.482,160.819908 C284.857,-17.6483468 436.393,-6.86964822 948.506,7.57767135 C1460.619,22.0249909 1830.042,-8.33046408 2211.451,77.4804459 C2592.86,163.291356 2574.751,822.887022 1985.051,937.046216 C1395.351,1051.20541 506.9,982.244456 229.655,868.685506 C-47.59,755.126557 -55.893,339.288991 114.482,160.819908 Z" id="Path"></path>
                        <path d="M615.569702,1.9723736 C545.968384,1.9723736 492.046021,4.03623603 445.872437,8.46727064 C433.532104,9.65146396 421.530396,11.033512 410.20105,12.5750582 C398.676025,14.14312 387.432007,15.932516 376.781372,17.8932511 C365.990356,19.8801981 355.427734,22.1131732 345.387451,24.530138 C335.249756,26.9706834 325.291382,29.6836712 315.789673,32.5940076 C306.226074,35.5233706 296.795044,38.7531083 287.758789,42.1940597 C278.690063,45.6473581 269.708008,49.4314939 261.06311,53.4408095 C252.4104,57.4537685 243.799805,61.8299503 235.470459,66.4469987 C227.156738,71.0554447 218.839844,76.0614218 210.750488,81.3256727 C202.699463,86.5654321 194.599121,92.240067 186.674316,98.1920022 C178.810791,104.097991 170.85083,110.479235 163.015381,117.159033 C155.266113,123.765659 147.37085,130.891971 139.548828,138.340922 C131.841309,145.680371 123.935303,153.589903 116.050781,161.849401 C103.674316,174.813186 91.9887695,189.337341 81.3173828,205.017756 C70.8620605,220.380694 61.2121582,237.100681 52.6347656,254.713697 C44.1870117,272.060799 36.6540527,290.532686 30.2443848,309.615899 C23.892334,328.527723 18.5546875,348.305704 14.3791504,368.400304 C10.2131348,388.449665 7.14697266,409.087885 5.26635742,429.741589 C3.37695312,450.4926 2.65844727,471.545353 3.13012695,492.315442 C3.60742187,513.322603 5.30981445,534.344134 8.19018555,554.79639 C11.1210937,575.606809 15.317627,596.15192 20.6633301,615.860476 C28.215332,643.701669 38.1669922,670.308067 50.2424316,694.941029 C56.4353027,707.574887 63.2807617,719.867787 70.5874023,731.478013 C78.045166,743.32789 86.1660156,754.756302 94.7248535,765.445415 C103.468994,776.366692 112.888184,786.788119 122.719971,796.420455 C132.772949,806.269572 143.512695,815.542632 154.640137,823.982578 C166.024658,832.617544 178.108398,840.601968 190.555176,847.71401 C203.29541,854.994051 216.748291,861.549772 230.540283,867.199005 C252.341064,876.128577 278.394775,884.946015 307.978027,893.406606 C337.141357,901.747068 370.157104,909.861945 406.107788,917.525348 C441.758789,925.125094 480.787354,932.386109 522.109741,939.10649 C563.367432,945.816345 607.467041,952.078371 653.184082,957.717685 C699.151367,963.387867 747.383423,968.50689 796.539429,972.931548 C846.299438,977.41106 897.725342,981.243774 949.388428,984.32383 C1056.48669,990.708212 1165.17212,993.945337 1272.42578,993.945337 C1400.94946,993.945337 1525.19043,989.296005 1641.698,980.126274 C1702.89331,975.309954 1762.36548,969.191335 1818.4624,961.940947 C1847.30237,958.213182 1875.78271,954.116426 1903.11169,949.764128 C1930.97803,945.326111 1958.39478,940.503718 1984.6001,935.430643 C2004.70703,931.538218 2024.61035,926.906192 2043.75708,921.663497 C2062.51501,916.527371 2081.0437,910.668645 2098.8291,904.250259 C2116.25403,897.962426 2133.42444,890.971121 2149.86304,883.471365 C2165.9707,876.122809 2181.7981,868.093348 2196.9054,859.605938 C2254.75134,827.108378 2304.9353,786.482178 2346.06396,738.855311 C2355.81396,727.565094 2365.15283,715.750081 2373.82104,703.73853 C2382.34229,691.930702 2390.42749,679.640029 2397.85083,667.208175 C2405.15698,654.973113 2412.00195,642.301101 2418.1958,629.543976 C2424.2998,616.972004 2429.91895,604.012572 2434.89795,591.026067 C2444.69214,565.478925 2452.31152,539.075897 2457.5437,512.550716 C2462.6814,486.506408 2465.56982,460.087946 2466.12939,434.028963 C2466.573,413.365898 2465.55249,392.699443 2463.09619,372.603123 C2460.64331,352.537518 2456.72241,332.736057 2451.44141,313.748786 C2446.13574,294.672809 2439.37598,276.125726 2431.3501,258.623327 C2423.23877,240.934306 2413.7041,224.030227 2403.01099,208.380477 C2380.93896,176.077229 2353.80273,148.740388 2322.35547,127.129999 C2314.31714,121.605956 2305.89771,116.398582 2297.33179,111.652701 C2288.65161,106.843566 2279.59277,102.381765 2270.40674,98.3911726 C2261.09167,94.3445125 2251.39941,90.6759522 2241.59937,87.4867975 C2231.65503,84.2503802 2221.33508,81.4221206 2210.927,79.0805531 C2177.23169,71.4996311 2142.46973,64.5851404 2107.60645,58.5296731 C2074.11072,52.7115302 2039.31177,47.4765274 2004.17676,42.9702979 C1938.69775,34.5718463 1870.02075,28.3538446 1794.2207,23.9614701 C1759.93237,21.9744219 1724.63501,20.3779216 1686.31177,19.0806829 C1651.92578,17.9167305 1615.68848,17.0163145 1575.52942,16.3279218 C1500.55774,15.0429288 1423.82666,14.7018698 1342.59033,14.3406711 C1281.33569,14.0687348 1217.99536,13.787184 1152.44006,13.0766275 C1078.33179,12.2732665 1011.60168,11.0164084 948.437744,9.23470402 C931.074097,8.74477325 914.045044,8.25666417 897.576416,7.78495021 C788.724121,4.66603135 694.715454,1.9723736 615.569702,1.9723736 Z M615.56958,0.31423983 C706.626587,0.31423983 815.382568,3.821885 948.505737,7.57737988 C1460.61914,22.0245181 1830.04199,-8.33094824 2211.45068,77.4802071 C2592.85938,163.291362 2574.74805,822.887039 1985.05469,937.045461 C1772.19788,978.252372 1520.3407,995.603471 1272.42578,995.603471 C833.523315,995.603471 406.822388,941.254048 229.654297,868.685597 C-47.5869141,755.126306 -55.8925781,339.289045 114.482422,160.820253 C240.568604,28.7441902 356.338379,0.31423983 615.56958,0.31423983 Z" id="Shape" fill="#00408E" fill-rule="nonzero"></path>
                    </g>
                    <path d="M277.477,113.582164 C466.637,-12.6656548 1612.157,45.7454236 2138.177,67.6734137 C2664.197,89.6014038 2796.516,641.81384 2663.329,844.253734 C2530.142,1046.69363 2071.805,913.600205 1764.438,915.138953 C1538.832,916.270629 1338.892,980.327653 1015.798,964.110276 C692.704,947.892898 392.477,922.831036 225.528,712.441219 C58.579,502.051402 88.316,239.829982 277.477,113.582164 Z" id="Path_13" fill="#00408E"></path>
                </g>
            </g>
        </g>
    </g>
</svg>